# xmcd
# 
# Track frame offsets:
#   150
#   22665
#   37411
#   59503
#   80977
#   100975
#   120123
#   138247
#   156212
#   174474
#   189792
#   207393
#   232822
#   249614
#   265580
# 
# Disc length: 3758 seconds
# 
# Revision: 0
# Processed by: cddbd v1.5.2PL0 Copyright (c) Steve Scherf et al.
# Submitted via: VOLTOCDX V1.0.24 
# 
DISCID=c20eac0f
DTITLE=Various Artist - sound choice spotlight series country hits vol 195
DYEAR=2009
DGENRE=Karaoke
TTITLE0=01 - RASCAL FLATTS - WINNER AT A LOSING GAME - SOUND CHOICE
TTITLE1=02 - JOE NICHOLS - ANOTHER SIDE OF YOU - SOUND CHOICE
TTITLE2=03 - BRAD PAISLEY - LETTER TO ME - SOUND CHOICE
TTITLE3=04 - KENNY CHESNEY and GEORGE STRAIT - SHIFTWORK - SOUND CHOICE
TTITLE4=05 - ALISON KRAUSS - SIMPLE LOVE - SOUND CHOICE
TTITLE5=06 - MARTINA MCBRIDE - FOR THESE TIMES - SOUND CHOICE
TTITLE6=07 - BROOKS and DUNN - GOD MUST BE BUSY - SOUND CHOICE
TTITLE7=08 - RODNEY ATKINS - CLEANING THIS GUN (COME ON IN BOY) - SOUND CHOICE
TTITLE8=09 - CRAIG MORGAN - INTERNATIONAL HARVESTER - SOUND CHOICE
TTITLE9=10 - MIRANADA LAMBERT - GUNPOWDER and LEAD - SOUND CHOICE
TTITLE10=11 - GARY ALLAN - WATCHING AIRPLANES - SOUND CHOICE
TTITLE11=12 - KEITH URBAN - EVERYBODY - SOUND CHOICE
TTITLE12=13 - KENNY CHESNEY - SUMMERTIME - SOUND CHOICE
TTITLE13=14 - GARTH BROOKS - MORE THAN A MEMORY - SOUND CHOICE
TTITLE14=15 - TAYLOR SWIFT - OUR SONG - SOUND CHOICE
EXTD=
EXTT0=
EXTT1=
EXTT2=
EXTT3=
EXTT4=
EXTT5=
EXTT6=
EXTT7=
EXTT8=
EXTT9=
EXTT10=
EXTT11=
EXTT12=
EXTT13=
EXTT14=
PLAYORDER=
